<svg version="1.1" viewBox="0.0 0.0 113.38582677165354 113.38582677165354" fill="none" stroke="none" stroke-linecap="square" stroke-miterlimit="10" xmlns:xlink="http://www.w3.org/1999/xlink" xmlns="http://www.w3.org/2000/svg"><clipPath id="p.0"><path d="m0 0l113.385826 0l0 113.385826l-113.385826 0l0 -113.385826z" clip-rule="nonzero"/></clipPath><g clip-path="url(#p.0)"><path fill="#000000" fill-opacity="0.0" d="m0 0l113.385826 0l0 113.385826l-113.385826 0z" fill-rule="evenodd"/><path fill="#252834" d="m0.007874016 56.692913l0 0c0 -31.31063 25.382282 -56.692913 56.692913 -56.692913l0 0c15.0358925 0 29.45596 5.972986 40.087948 16.604969c10.631981 10.631985 16.604965 25.052048 16.604965 40.087944l0 0c0 31.310635 -25.382278 56.692913 -56.692913 56.692913l0 0c-31.31063 0 -56.692913 -25.382278 -56.692913 -56.692913z" fill-rule="evenodd"/><path stroke="#252834" stroke-width="1.0" stroke-linejoin="round" stroke-linecap="butt" d="m0.007874016 56.692913l0 0c0 -31.31063 25.382282 -56.692913 56.692913 -56.692913l0 0c15.0358925 0 29.45596 5.972986 40.087948 16.604969c10.631981 10.631985 16.604965 25.052048 16.604965 40.087944l0 0c0 31.310635 -25.382278 56.692913 -56.692913 56.692913l0 0c-31.31063 0 -56.692913 -25.382278 -56.692913 -56.692913z" fill-rule="evenodd"/><path fill="#000000" fill-opacity="0.0" d="m5.987403 0.40110892l73.16535 0l0 80.40945l-73.16535 0z" fill-rule="evenodd"/><path fill="#ffffff" d="m35.53428 84.2011l-22.1875 -57.265625l8.203124 0l14.875002 41.59375q1.796875 5.0 3.015625 9.375q1.328125 -4.6875 3.078125 -9.375l15.46875 -41.59375l7.734375 0l-22.421875 57.265625l-7.765625 0z" fill-rule="nonzero"/><path fill="#000000" fill-opacity="0.0" d="m45.105152 0.41989973l104.220474 0l0 80.40945l-104.220474 0z" fill-rule="evenodd"/><path fill="#ffffff" d="m57.964527 84.219894l0 -57.265625l21.484371 0q6.5625 0 10.53125 1.734375q3.96875 1.734375 6.203125 5.359375q2.25 3.609375 2.25 7.546875q0 3.671875 -2.0 6.921875q-1.984375 3.234375 -6.0 5.234375q5.1875 1.515625 7.984375 5.1875q2.796875 3.671875 2.796875 8.671875q0 4.03125 -1.703125 7.484375q-1.703125 3.453125 -4.203125 5.328125q-2.5 1.875 -6.265625 2.84375q-3.765625 0.953125 -9.234375 0.953125l-21.843746 0zm7.578121 -33.203125l12.390625 0q5.03125 0 7.21875 -0.671875q2.890625 -0.859375 4.359375 -2.84375q1.46875 -2.0 1.46875 -5.0q0 -2.859375 -1.375 -5.015625q-1.359375 -2.171875 -3.90625 -2.96875q-2.53125 -0.8125 -8.703125 -0.8125l-11.453125 0l0 17.3125zm0 26.4375l14.265625 0q3.671875 0 5.15625 -0.265625q2.609375 -0.46875 4.359375 -1.5625q1.765625 -1.09375 2.890625 -3.1875q1.140625 -2.09375 1.140625 -4.828125q0 -3.203125 -1.640625 -5.5625q-1.640625 -2.359375 -4.546875 -3.3125q-2.90625 -0.96875 -8.375 -0.96875l-13.25 0l0 19.6875z" fill-rule="nonzero"/></g></svg>